<svg xmlns="http://www.w3.org/2000/svg">
  <symbol id="form-mail" fill="none" viewBox="0 0 19 14">
    <line x1="0.65" y1="5.84766" x2="0.65" y2="13.8477" stroke="var(--basic-green, #222222)" stroke-width="1.3"/>
    <line x1="17.65" y1="5.84766" x2="17.65" y2="13.8477" stroke="var(--basic-green, #222222)" stroke-width="1.3"/>
    <line y1="13.1977" x2="18" y2="13.1977" stroke="var(--basic-green, #222222)" stroke-width="1.3"/>
    <line y1="1.19766" x2="18" y2="1.19766" stroke="var(--basic-green, #222222)" stroke-width="1.3"/>
    <path d="M17.35 3.02975L9.00002 9.5242L0.65 3.02975V1.49766H3.5L9.00002 1.49766H14H17.35V3.02975Z" stroke="var(--basic-green, #222222)" stroke-width="1.3"/>
  </symbol>
  <symbol id="form-phone" viewBox="0 0 20 21" fill="var(--basic-green, #222222)">
    <g clip-path="url(#clip0)">
      <path d="M17.9 9.75275H9.39999V10.9569H17.9L15.8 13.0641L16.7 13.9672L19.8 10.8565C19.8974 10.7263 19.95 10.5678 19.95 10.405C19.95 10.2421 19.8974 10.0837 19.8 9.95344L16.7 6.84277L15.8 7.74587L17.9 9.75275Z" fill="var(--basic-green, #000000)"/>
      <path d="M8.10001 19.7872V13.5659C8.08846 13.41 8.02154 13.2635 7.91142 13.153C7.80131 13.0425 7.65531 12.9754 7.50001 12.9638H3.10001C3.10516 13.2815 3.23325 13.5848 3.45718 13.8095C3.68112 14.0342 3.98336 14.1627 4.30001 14.1679H6.80001V19.1851H3.10001C2.86326 19.2 2.62591 19.1676 2.40176 19.0896C2.17762 19.0117 1.97115 18.8898 1.79436 18.7311C1.61757 18.5723 1.47399 18.3799 1.37196 18.165C1.26992 17.9501 1.21148 17.717 1.20001 17.4793V3.43111C1.19181 2.96681 1.36516 2.51774 1.68292 2.18013C2.00069 1.84252 2.43758 1.64322 2.90001 1.62492H6.80001V6.64212H4.40001C4.08336 6.64729 3.78112 6.77581 3.55718 7.00052C3.33325 7.22523 3.20516 7.52851 3.20001 7.84625H7.60001C7.75531 7.83466 7.90131 7.76751 8.01142 7.65701C8.12154 7.54651 8.18846 7.40002 8.20001 7.24418V0.922517C8.15232 0.76584 8.06117 0.626022 7.93721 0.519407C7.81325 0.412792 7.66161 0.343785 7.50001 0.320453H3.10001C2.70599 0.307054 2.31321 0.371716 1.94411 0.510744C1.57501 0.649771 1.23684 0.860436 0.948933 1.13069C0.661026 1.40095 0.42903 1.7255 0.266207 2.08579C0.103385 2.44608 0.01293 2.83504 1.46306e-05 3.23043V17.1782C-0.0289644 17.5773 0.0246504 17.978 0.157487 18.3552C0.290324 18.7324 0.499509 19.078 0.771886 19.3701C1.04426 19.6623 1.37394 19.8947 1.74019 20.0529C2.10643 20.211 2.50132 20.2913 2.90001 20.2889H7.50001C7.5735 20.304 7.64943 20.3022 7.72216 20.2839C7.7949 20.2655 7.86259 20.2309 7.92021 20.1828C7.97783 20.1346 8.02391 20.074 8.05504 20.0055C8.08616 19.9371 8.10153 19.8624 8.10001 19.7872Z" fill="var(--basic-green, #000000)"/>
    </g>
    <defs>
      <clipPath id="clip0">
        <rect width="20" height="20.0688" fill="white" transform="translate(0 0.320435)"/>
      </clipPath>
    </defs>
  </symbol>
  <symbol id="cat-weight" viewBox="0 0 268 112">
    <g clip-path="url(#clip0)">
      <path d="M246.2 11.5999C248.509 7.92605 251.578 4.7891 255.2 2.39989C257.2 0.99989 258.4 0.99989 259.6 3.59989C261.2 7.39989 262.6 11.3999 261.4 15.5999C261.182 16.3122 261.14 17.0671 261.28 17.799C261.419 18.5309 261.735 19.2177 262.2 19.7999C263.4 21.3999 264.4 22.9999 265.4 24.3999C266.761 26.1274 267.644 28.1825 267.96 30.359C268.276 32.5354 268.014 34.7567 267.2 36.7999C266.466 38.7835 266.327 40.9384 266.8 42.9999C267.2 44.9799 267.2 47.0199 266.8 48.9999C266.638 50.4827 266.038 51.8837 265.076 53.0237C264.115 54.1637 262.835 54.991 261.4 55.3999C258.842 55.8867 256.559 57.3137 255 59.3999C254.811 59.7071 254.546 59.9605 254.231 60.1357C253.916 60.3108 253.561 60.4018 253.2 60.3999C250.8 60.7999 244.8 55.3999 244.8 52.9999V51.7999C245 44.5999 244.6 43.9999 238 40.9999C236.619 40.5127 235.381 39.6877 234.4 38.5999C233.2 36.9999 231.6 37.1999 229.8 37.7999C228 38.3999 227 39.5999 227.2 41.5999C227.803 46.4416 228.004 51.325 227.8 56.1999C227.813 56.7563 227.95 57.3027 228.2 57.7999C234.4 66.7999 236.8 77.3999 239.8 87.5999C242.2 95.3999 246.6 99.5999 254.6 100.2C255.88 100.302 257.151 100.503 258.4 100.8C260.044 101.064 261.57 101.815 262.783 102.956C263.995 104.097 264.837 105.575 265.2 107.2C266.6 111.4 265.8 112.4 261.6 112.4H248.6C246.917 112.485 245.267 111.911 244 110.8C241.976 109.092 239.677 107.739 237.2 106.8C234.462 105.789 232.093 103.977 230.4 101.6C228.057 98.3269 225.376 95.3102 222.4 92.5999C216.8 86.7999 210.8 81.1999 205.6 75.1999C201.641 71.1115 199.358 65.6885 199.2 59.9999C199.2 58.1999 198.8 57.3999 196.8 58.1999C196.201 58.5798 195.509 58.7874 194.8 58.7999C189.2 58.7999 186.4 62.1999 184.4 67.1999C182.6 71.3999 180.2 75.3999 178 79.5999C176.753 82.229 176.071 85.0907 176 87.9999C176 92.7999 177.2 94.3999 181.6 95.9999C184.4 96.9999 187 97.9999 188.4 100.8C190 104 189.6 104.8 186.2 105H172.6C171.816 105.078 171.027 104.907 170.346 104.512C169.664 104.117 169.123 103.518 168.8 102.8L165.2 96.7999C164.139 95.2344 163.459 93.4419 163.216 91.5663C162.973 89.6907 163.173 87.7842 163.8 85.9999C164.666 82.5269 164.734 78.9031 164 75.3999C163.496 72.9601 163.539 70.4389 164.127 68.0179C164.715 65.597 165.833 63.3367 167.4 61.3999C168.6 59.9999 168.6 59.3999 166.6 58.9999C158.422 57.2627 150.493 54.5079 143 50.7999C142.947 50.7999 142.896 50.7788 142.859 50.7413C142.821 50.7038 142.8 50.6529 142.8 50.5999C136.4 48.1999 135.2 48.5999 133.4 55.1999C131.8 60.7999 130.2 66.3999 129 72.1999C127.6 78.5999 129.2 84.5999 131.2 90.5999C132 92.9999 134.4 92.7999 136.2 93.3999C140.2 94.5999 143.6 96.1999 145.2 100.4C146.6 103.6 146.4 104 143 104C139.6 104 136.2 103.8 132.6 104C129.562 104.055 126.597 103.067 124.2 101.2C114.6 94.7999 111.8 84.9999 111 74.3999C110.6 67.7999 107 62.5999 102.8 57.5999C102 56.5999 101.2 56.1999 100 56.9999C95.707 59.367 91.2249 61.3739 86.6 62.9999C76.9485 66.4078 68.4793 72.5168 62.2 80.5999C59.8553 83.5499 58.3368 87.07 57.8 90.7999C57.2 94.3999 58.2 95.9999 61.8 96.9999C65.4 97.9999 67.2 99.9999 67.6 103.8C67.8 105.4 67.2 106.2 65.6 106.2H49.4C48.8698 106.162 48.3566 105.997 47.9039 105.719C47.4512 105.44 47.0725 105.056 46.8 104.6C44.2877 101.489 42.9433 97.5978 43 93.5999C42.8951 86.6898 43.4982 79.7871 44.8 72.9999C45.067 70.9673 45.8259 69.0305 47.0108 67.3576C48.1958 65.6846 49.7711 64.3261 51.6 63.3999C63.4 57.7999 69.6 47.1999 75.2 36.1999C76.4 33.9999 75.4 33.5999 73.4 33.7999C67.8027 34.5769 62.4994 36.7809 58 40.1999C52.1084 44.4976 46.5585 49.2451 41.4 54.3999C35.8993 59.9872 28.6054 63.4571 20.8 64.1999C6.20002 64.9999 -0.599978 56.7999 2.18973e-05 43.5999C0.134147 39.0991 1.83132 34.7854 4.80002 31.3999C5.83206 30.0619 7.23949 29.0619 8.84256 28.5275C10.4456 27.9931 12.1716 27.9487 13.8 28.3999C16.8 29.1999 17.6 30.7999 16.4 33.7999C15.8 34.9999 15 35.9999 14.4 37.1999C13.5372 38.4258 12.8631 39.7741 12.4 41.1999C10.2 47.1999 13.2 51.3999 19.4 51.9999C26 52.5999 31.4 49.7999 36.4 45.7999C42.4239 40.9764 47.8014 35.3972 52.4 29.1999C55.8385 24.6747 60.1682 20.9025 65.1217 18.1161C70.0751 15.3298 75.5472 13.5886 81.2 12.9999C85.8 12.3999 89.8 10.3999 94.2 9.19989C102.429 6.6911 110.998 5.47661 119.6 5.59989C123.584 5.76582 127.553 5.01308 131.2 3.39989C141 -0.60011 151.2 -0.60011 161.4 1.39989C169.4 2.99989 177.4 4.99989 185.2 6.99989C189.842 7.86484 194.615 7.72847 199.2 6.59989C207.977 4.37496 216.956 3.03494 226 2.59989C231.925 2.31162 237.83 3.47897 243.2 5.99989C247.2 7.79989 247.2 7.79989 246.2 11.5999Z" fill="black"/>
    </g>
    <defs>
      <clipPath id="clip0">
        <rect width="268" height="112" fill="white"/>
      </clipPath>
    </defs>
  </symbol>
  <symbol id="cat-slim" viewBox="0 0 140 192">
    <g clip-path="url(#clip0)">
      <path d="M109.68 0H108.92C107.636 0.718392 106.614 1.81987 106 3.14722C104.875 5.28913 104.009 7.55462 103.42 9.89691C103.294 10.6012 102.934 11.244 102.398 11.7241C101.863 12.2042 101.181 12.4945 100.46 12.5493C98.2558 12.9253 96.1675 13.7949 94.3546 15.0917C92.5418 16.3884 91.0523 18.0779 90 20.0313C88.5532 22.5676 87.3158 25.2154 86.3 27.9489C83.46 35.233 81.28 42.7546 78.6 50.0981C77.34 53.4433 77.28 53.4433 73.48 53.4433C68.94 53.4433 69.26 52.7505 69.2 57.699C69.2 59.2627 69.68 60.0544 71.36 59.9753C71.88 59.9753 72.66 59.7179 72.86 60.3909C73.06 61.0639 72.38 61.3608 71.98 61.7567C69.6086 64.1392 66.6075 65.8129 63.32 66.5864C59.52 67.5959 55.64 68.3876 51.94 69.6148C42.44 72.7621 33.66 77.1563 26.82 84.5988C22.8206 89.2214 19.6177 94.4643 17.34 100.117C10 117.219 6.44 135.231 3.68 153.422C2.38 161.953 1.46 170.524 0.76 179.154C0.4 183.39 0 187.685 0 192H66.66C66.7707 191.129 66.6102 190.245 66.2 189.466C65.5589 187.887 64.5171 186.498 63.1753 185.434C61.8335 184.369 60.237 183.665 58.54 183.39C57.14 183.073 56.98 182.657 57.84 181.569C59.2427 179.716 60.318 177.641 61.02 175.433C64.28 165.912 65.54 155.975 67.12 146.138C68.0125 138.624 70.3477 131.348 74 124.701C76.8488 119.809 80.6486 115.523 85.18 112.092C86.84 110.845 86.9 110.845 87.18 112.963C87.38 114.369 87.42 115.814 87.52 117.239C88.1202 126.59 87.9998 135.973 87.16 145.306C86.4048 152.541 86.3044 159.828 86.86 167.08C87.6551 175.499 89.1739 183.836 91.4 192H118C117.653 189.857 116.656 187.869 115.142 186.3C113.627 184.731 111.667 183.653 109.52 183.212C107.013 182.817 104.45 182.952 102 183.607C100.8 183.885 100.3 183.607 100.2 182.321C99.3725 171.842 100.046 161.3 102.2 151.007C104.868 139.125 106.91 127.114 108.32 115.022C108.845 110.139 110.398 105.419 112.88 101.166C115.26 96.9699 117.34 92.6153 119.68 88.3992C120.609 86.8662 121.168 85.1417 121.314 83.3599C121.46 81.5781 121.188 79.7871 120.52 78.1262C119.98 76.7208 119.46 75.2957 118.8 73.9497C116.8 70.0899 114.8 66.2697 112.96 62.3703C111.98 60.3909 112.2 60.1534 114.38 60.094C117.64 60.094 117.64 60.094 117.7 56.8478C117.7 56.4124 117.7 55.9769 117.7 55.5414C117.7 54.1757 117.18 53.4235 115.7 53.5621C114.7 53.5621 113.7 53.5621 112.66 53.5621C111.28 53.5621 110.88 52.988 111.22 51.5827C111.895 49.2981 113.222 47.2551 115.042 45.6995C116.862 44.1438 119.098 43.1418 121.48 42.814C125.911 42.4338 130.376 42.7207 134.72 43.6652C135.221 43.8215 135.765 43.7762 136.232 43.5391C136.7 43.3021 137.055 42.8923 137.22 42.3984C138.02 40.419 138.9 38.4396 139.8 36.4602C140.004 36.109 140.094 35.7044 140.058 35.3008C140.023 34.8973 139.863 34.5144 139.6 34.2037C133.2 26.1674 126.26 18.6656 116.8 13.8557C116.343 13.661 115.942 13.3561 115.635 12.9688C115.328 12.5816 115.123 12.1243 115.04 11.6388C114.505 8.80926 113.653 6.04751 112.5 3.40454C111.959 1.99643 110.969 0.801217 109.68 0V0Z" fill="black"/>
    </g>
    <defs>
      <clipPath id="clip0">
        <rect width="140" height="192" fill="white"/>
      </clipPath>
    </defs>
  </symbol>
  <symbol id="logo-svg-text" viewBox="0 0 128 24">
    <g clip-path="url(#clip0)">
      <path d="M1.60253 22.0513C0.468358 20.3682 -0.0946573 18.3503 3.016e-05 16.3077V7.79487C-0.137317 5.73031 0.390444 3.67661 1.50238 1.94872C2.6041 0.615385 4.30676 0 6.81067 0C9.31458 0 10.9171 0.615385 11.9187 1.74359C13.006 3.17255 13.5409 4.96181 13.421 6.76923V8.82051H8.51333V6.46154C8.55297 5.76385 8.45065 5.06533 8.21286 4.41026C8.08576 4.14583 7.88431 3.9264 7.63443 3.78018C7.38455 3.63395 7.09766 3.56763 6.81067 3.58974C6.10958 3.58974 5.60879 3.79487 5.40848 4.30769C5.18191 5.03643 5.08025 5.79984 5.10801 6.5641V17.5385C5.05512 18.2799 5.19327 19.0227 5.50864 19.6923C5.70895 20.2051 6.20973 20.4103 6.91083 20.4103C7.61192 20.4103 8.01255 20.2051 8.21286 19.6923C8.44058 18.9992 8.54242 18.2692 8.51333 17.5385V15.0769H13.421V17.1282C13.5229 18.9651 12.9911 20.7803 11.9187 22.2564C10.9171 23.4872 9.21443 24.1026 6.81067 24.1026C4.40692 24 2.6041 23.3846 1.60253 22.0513Z" fill="#111111"/>
      <path d="M19.3302 0.307617H25.0391L29.2457 23.6922H24.6385L23.8372 18.7692H20.5321L19.7308 23.6922H15.0235L19.3302 0.307617ZM23.4366 15.6922L22.2347 6.56403L21.0329 15.6922H23.4366Z" fill="#111111"/>
      <path d="M32.7512 4.20505H29.3459V0.307617H41.2645V4.10249H37.8592V23.6922H32.7512V4.20505Z" fill="#111111"/>
      <path d="M50.3787 0.307617H59.1925V2.76916H53.4836V10.4615H58.0908V12.8204H53.4836V21.4358H59.1925V23.7948H50.2786V0.307617H50.3787Z" fill="#111111"/>
      <path d="M61.7966 0.307617H64L70.5102 15.7948V0.307617H73.1142V23.6922H71.1111L64.5008 7.69223V23.6922H61.7966V0.307617Z" fill="#111111"/>
      <path d="M76.1189 0.307617H84.9327V2.76916H79.2238V10.4615H83.831V12.8204H79.2238V21.4358H84.9327V23.7948H76.1189V0.307617Z" fill="#111111"/>
      <path d="M87.5368 0.3076H92.144C93.9564 0.179397 95.7575 0.685711 97.2519 1.7435C98.3537 2.66657 98.8544 4.3076 98.8544 6.46145C98.8544 9.4358 97.953 11.282 96.0501 11.8973L99.2551 23.5897H96.1502L93.1455 12.6153H90.6416V23.5897H87.4366V0.3076H87.5368ZM91.9437 10.3589C92.9762 10.446 94.0053 10.1553 94.8482 9.53837C95.4491 9.02555 95.7496 7.99991 95.7496 6.46145C95.7774 5.69719 95.6757 4.93378 95.4491 4.20504C95.2237 3.68211 94.8366 3.24964 94.3474 2.97427C93.6576 2.65236 92.9003 2.51137 92.144 2.56401H90.7418V10.2563H91.9437V10.3589Z" fill="#111111"/>
      <path d="M102.861 21.9487C101.82 20.1554 101.331 18.0821 101.459 15.9999V8.20507C101.434 6.71875 101.602 5.23567 101.959 3.79481C102.294 2.71811 102.962 1.78218 103.862 1.12815C104.981 0.450275 106.271 0.128917 107.568 0.20507C109.671 0.20507 111.174 0.71789 112.075 1.8461C113.112 3.33582 113.608 5.14977 113.477 6.9743V7.79481H110.473V7.07687C110.477 6.21789 110.41 5.36008 110.272 4.51276C110.188 3.97732 109.9 3.49792 109.471 3.17943C108.908 2.80104 108.24 2.62099 107.568 2.66661C106.85 2.61949 106.139 2.83785 105.565 3.28199C105.329 3.48529 105.137 3.73569 104.999 4.01787C104.861 4.30004 104.781 4.60805 104.764 4.92302C104.632 5.83993 104.565 6.76543 104.563 7.69225V16.4102C104.49 17.7384 104.694 19.0674 105.164 20.3076C105.565 21.1281 106.366 21.4358 107.568 21.4358C108.043 21.4964 108.524 21.4119 108.952 21.1929C109.38 20.9739 109.734 20.6302 109.972 20.2051C110.501 18.9081 110.741 17.5064 110.673 16.1025V14.4615H107.768V12.1025H113.577V23.6923H111.574L111.274 21.0256C111.011 21.9193 110.465 22.6975 109.72 23.2364C108.976 23.7753 108.078 24.0441 107.167 23.9999C106.34 24.0498 105.513 23.8885 104.761 23.5304C104.01 23.1724 103.357 22.6289 102.861 21.9487Z" fill="#111111"/>
      <path d="M119.987 15.4871L115.08 0.410156H118.084L121.59 11.6922L124.995 0.410156H128L123.092 15.4871V23.6922H120.088V15.4871H119.987Z" fill="#111111"/>
    </g>
    <defs>
      <clipPath id="clip0">
        <rect width="128" height="24" fill="white"/>
      </clipPath>
    </defs>
  </symbol>
  <!-- Иконки соц.сетей -->
  <symbol id="icon-instagram" viewBox="0 0 23 22" fill="none">
    <g clip-path="url(#clip0)">
      <path d="M11.4844 3.0625C12.8177 3.0625 13.9062 3.07812 14.75 3.10937C15.4688 3.14062 16.1094 3.26562 16.6719 3.48437C17.2135 3.69271 17.6823 3.99479 18.0781 4.39062C18.474 4.78646 18.776 5.25521 18.9844 5.79687C19.2031 6.35937 19.3281 7 19.3594 7.71875C19.3906 8.5625 19.4062 9.65104 19.4062 10.9844C19.4062 12.3177 19.3906 13.4062 19.3594 14.25C19.3281 14.9687 19.2031 15.6094 18.9844 16.1719C18.776 16.7135 18.474 17.1823 18.0781 17.5781C17.6823 17.974 17.2135 18.276 16.6719 18.4844C16.1094 18.7031 15.4688 18.8281 14.75 18.8594C13.9062 18.8906 12.8177 18.9062 11.4844 18.9062C10.151 18.9062 9.0625 18.8906 8.21875 18.8594C7.5 18.8281 6.85938 18.7031 6.29688 18.4844C5.75521 18.276 5.28646 17.974 4.89062 17.5781C4.49479 17.1823 4.19271 16.7135 3.98438 16.1719C3.76562 15.6094 3.64062 14.9687 3.60938 14.25C3.57812 13.4062 3.5625 12.3177 3.5625 10.9844C3.5625 9.65104 3.57812 8.5625 3.60938 7.71875C3.64062 7 3.76562 6.35937 3.98438 5.79687C4.19271 5.25521 4.49479 4.78646 4.89062 4.39062C5.28646 3.99479 5.75521 3.69271 6.29688 3.48437C6.85938 3.26562 7.5 3.14062 8.21875 3.10937C9.0625 3.07812 10.151 3.0625 11.4844 3.0625ZM11.4844 4.09375C10.099 4.09375 8.96875 4.10937 8.09375 4.14062C7.53125 4.16146 7.01042 4.26042 6.53125 4.4375C5.78125 4.75 5.25 5.28125 4.9375 6.03125C4.76042 6.51042 4.66146 7.03125 4.64062 7.59375C4.60938 8.46875 4.59375 9.59896 4.59375 10.9844C4.59375 12.3698 4.60938 13.5 4.64062 14.375C4.66146 14.9375 4.76042 15.4583 4.9375 15.9375C5.25 16.6875 5.78125 17.2187 6.53125 17.5312C7.01042 17.7083 7.53125 17.8073 8.09375 17.8281C8.96875 17.8594 10.099 17.875 11.4844 17.875C12.8698 17.875 14 17.8594 14.875 17.8281C15.4375 17.8073 15.9583 17.7083 16.4375 17.5312C17.1875 17.2187 17.7188 16.6875 18.0312 15.9375C18.2083 15.4583 18.3073 14.9375 18.3281 14.375C18.3594 13.5 18.375 12.3698 18.375 10.9844C18.375 9.59896 18.3594 8.46875 18.3281 7.59375C18.3073 7.03125 18.2083 6.51042 18.0312 6.03125C17.7188 5.28125 17.1875 4.75 16.4375 4.4375C15.9583 4.26042 15.4375 4.16146 14.875 4.14062C14 4.10937 12.8698 4.09375 11.4844 4.09375ZM11.4844 14.1562C12.3594 14.1562 13.1068 13.8464 13.7266 13.2266C14.3464 12.6068 14.6562 11.8594 14.6562 10.9844C14.6562 10.1094 14.3464 9.36198 13.7266 8.74219C13.1068 8.1224 12.3594 7.8125 11.4844 7.8125C10.6094 7.8125 9.86198 8.1224 9.24219 8.74219C8.6224 9.36198 8.3125 10.1094 8.3125 10.9844C8.3125 11.8594 8.6224 12.6068 9.24219 13.2266C9.86198 13.8464 10.6094 14.1562 11.4844 14.1562ZM11.4844 6.92187C12.6094 6.92187 13.5677 7.31771 14.3594 8.10937C15.151 8.90104 15.5469 9.85937 15.5469 10.9844C15.5469 12.1094 15.151 13.0677 14.3594 13.8594C13.5677 14.651 12.6094 15.0469 11.4844 15.0469C10.3594 15.0469 9.40104 14.651 8.60938 13.8594C7.81771 13.0677 7.42188 12.1094 7.42188 10.9844C7.42188 9.85937 7.81771 8.90104 8.60938 8.10937C9.40104 7.31771 10.3594 6.92187 11.4844 6.92187ZM16.6719 6.76562C16.6719 7.02604 16.5781 7.2474 16.3906 7.42969C16.2031 7.61198 15.974 7.70312 15.7031 7.70312C15.4427 7.70312 15.2214 7.61198 15.0391 7.42969C14.8568 7.2474 14.7656 7.02604 14.7656 6.76562C14.7656 6.49479 14.8568 6.26562 15.0391 6.07812C15.2214 5.89062 15.4427 5.79687 15.7031 5.79687C15.9635 5.79687 16.1901 5.89323 16.3828 6.08594C16.5755 6.27865 16.6719 6.50521 16.6719 6.76562Z" fill="var(--basic-green, #666666)"/>
    </g>
    <defs>
      <clipPath id="clip0">
        <rect width="16" height="16" fill="white" transform="translate(3.5 3)"/>
      </clipPath>
    </defs>
  </symbol>
  <symbol id="icon-facebook" viewBox="0 0 23 22" fill="none">
    <path d="M15.58 2H12.8309C11.6157 2 10.4503 2.47358 9.59107 3.31656C8.73182 4.15953 8.24909 5.30285 8.24909 6.495V9.192H5.5V12.788H8.24909V19.98H11.9145V12.788H14.6636L15.58 9.192H11.9145V6.495C11.9145 6.25657 12.0111 6.02791 12.1829 5.85931C12.3548 5.69072 12.5879 5.596 12.8309 5.596H15.58V2Z" stroke="var(--basic-green, #666666)" stroke-width="1.1" stroke-linecap="round" stroke-linejoin="round"/>
  </symbol>
  <symbol id="icon-vkontakte" viewBox="0 0 23 22" fill="none">
    <path d="M0.0700874 6.99266C0.0700874 6.37082 0.493208 6.03552 1.33945 5.98675L4.60039 6.00503C4.81925 6.00503 4.96515 6.09648 5.0381 6.27938C5.37368 7.19385 5.74938 7.98334 6.16521 8.64785C6.58103 9.31237 7.12452 10.0775 7.79568 10.9432C7.85404 11.0529 7.94888 11.1078 8.08019 11.1078C8.18232 11.1078 8.26257 11.0651 8.32093 10.9798L8.38659 10.7786L8.40847 7.6145C8.40847 7.39503 8.34646 7.24871 8.22244 7.17556C8.09843 7.1024 7.86863 7.04753 7.53305 7.01095C7.27042 6.97437 7.13911 6.84025 7.13911 6.60859C7.13911 6.55981 7.14641 6.52323 7.161 6.49885C7.46739 5.70631 8.34282 5.31004 9.78726 5.31004L11.0128 5.29175C11.5673 5.29175 12.0269 5.40758 12.3916 5.63925C12.7564 5.87091 12.9388 6.2367 12.9388 6.73661V10.8883C13.0409 10.9493 13.1357 10.9798 13.2233 10.9798C13.4421 10.9798 13.6318 10.87 13.7923 10.6505C15.3972 8.77283 16.2654 7.51696 16.3967 6.88293C16.3967 6.87073 16.4113 6.84025 16.4405 6.79148C16.5426 6.60859 16.7104 6.45008 16.9438 6.31595C17.1773 6.18183 17.3815 6.09039 17.5566 6.04161C17.615 6.01723 17.6806 6.00503 17.7536 6.00503H21.1458L21.3647 6.02332C21.6565 6.02332 21.8827 6.13916 22.0432 6.37082C22.1015 6.44398 22.1416 6.52323 22.1635 6.60859C22.1854 6.69394 22.2 6.77929 22.2073 6.86464C22.2146 6.94999 22.2182 6.99876 22.2182 7.01095V7.13898C22.1161 7.63889 21.8571 8.17233 21.4413 8.7393C21.0255 9.30627 20.4966 9.91897 19.8546 10.5774C19.2126 11.2358 18.8114 11.6687 18.6509 11.8759C18.5196 12.0222 18.4539 12.1564 18.4539 12.2783C18.4539 12.3758 18.5123 12.4856 18.629 12.6075L21.8243 15.9728C21.9994 16.1678 22.0869 16.3812 22.0869 16.6129C22.0869 16.8933 21.9556 17.125 21.693 17.3079C21.4304 17.4908 21.1167 17.5944 20.7519 17.6188L20.3799 17.6371H17.0533C17.0387 17.6371 17.0095 17.6401 16.9657 17.6462C16.9219 17.6523 16.8928 17.6554 16.8782 17.6554C16.5572 17.6554 16.2581 17.5396 15.9809 17.3079C15.8787 17.2103 15.193 16.491 13.9236 15.1497C13.8507 15.0644 13.7485 14.9851 13.6172 14.912C13.5589 15.1071 13.4823 15.3875 13.3874 15.7533C13.2926 16.1191 13.2233 16.3812 13.1795 16.5397L13.1139 16.8506C12.968 17.2774 12.6616 17.5335 12.1947 17.6188L11.8883 17.6371H9.74349C8.53249 17.6371 7.32514 17.1738 6.12143 16.2471C4.91773 15.3204 3.8344 14.1225 2.87143 12.6532C1.90847 11.184 1.01116 9.47392 0.179515 7.52306C0.106563 7.36455 0.0700874 7.18775 0.0700874 6.99266ZM13.2233 11.7296C12.9169 11.7296 12.6397 11.6595 12.3916 11.5193C12.1436 11.3791 12.0196 11.187 12.0196 10.9432V6.73661C12.0196 6.49275 11.9466 6.319 11.8007 6.21536C11.6548 6.11172 11.3995 6.0599 11.0347 6.0599L9.78726 6.09648C9.15987 6.09648 8.68569 6.18793 8.3647 6.37082C9.00668 6.62687 9.32766 7.04143 9.32766 7.6145V10.8334C9.29848 11.1383 9.15258 11.3913 8.88995 11.5924C8.62733 11.7936 8.33552 11.8942 8.01453 11.8942C7.57682 11.8942 7.24124 11.7174 7.0078 11.3638C5.86975 9.92506 5.02351 8.55945 4.46908 7.267L4.27211 6.79148L1.36133 6.77319C1.17166 6.77319 1.06588 6.78233 1.04399 6.80062C1.02211 6.81891 1.01116 6.87073 1.01116 6.95608C1.01116 7.06582 1.02576 7.18165 1.05494 7.30358L1.51453 8.32779C2.74012 10.9737 4.07149 13.0586 5.50864 14.5828C6.94579 16.1069 8.35741 16.8689 9.74349 16.8689H11.932C12.0196 16.8689 12.0852 16.8476 12.129 16.8049C12.1728 16.7623 12.2093 16.6799 12.2384 16.558L12.2822 16.3751L12.698 14.7657C12.8148 14.5462 12.9169 14.3999 13.0044 14.3267C13.1649 14.1926 13.3546 14.1255 13.5735 14.1255C13.9236 14.1255 14.2811 14.3023 14.6458 14.6559L16.5061 16.6312C16.6228 16.7897 16.7469 16.8689 16.8782 16.8689H20.4893C20.927 16.8689 21.1458 16.7775 21.1458 16.5946C21.1458 16.5336 21.124 16.4727 21.0802 16.4117L17.9068 13.1013C17.6588 12.8453 17.5347 12.5709 17.5347 12.2783C17.5347 11.9857 17.6515 11.7052 17.8849 11.437C18.0746 11.1931 18.443 10.7877 18.9901 10.2207C19.5373 9.65377 20.0151 9.12338 20.4236 8.62956C20.8322 8.13575 21.1021 7.68766 21.2334 7.28529L21.299 7.04753C21.2845 7.02314 21.2772 6.98352 21.2772 6.92865C21.2772 6.87378 21.2699 6.82806 21.2553 6.79148H17.8192C17.6004 6.86464 17.4253 6.97437 17.294 7.12069L17.1627 7.46819C16.7979 8.3095 15.8423 9.60805 14.2957 11.3638C13.9893 11.6077 13.6318 11.7296 13.2233 11.7296Z" fill="var(--basic-green, #666666)"/>
  </symbol>
  <symbol id="icon-instagram-big" viewBox="0 0 30 33" fill="none">
    <path d="M16.39 7C18.3071 7 19.8722 7.02247 21.0853 7.0674C22.1187 7.11233 23.0398 7.29205 23.8485 7.60657C24.6273 7.90611 25.3013 8.34044 25.8704 8.90957C26.4396 9.47869 26.8739 10.1527 27.1734 10.9315C27.4879 11.7402 27.6677 12.6613 27.7126 13.6947C27.7575 14.9079 27.78 16.4729 27.78 18.39C27.78 20.3071 27.7575 21.8722 27.7126 23.0853C27.6677 24.1187 27.4879 25.0398 27.1734 25.8485C26.8739 26.6273 26.4396 27.3013 25.8704 27.8704C25.3013 28.4396 24.6273 28.8739 23.8485 29.1734C23.0398 29.4879 22.1187 29.6677 21.0853 29.7126C19.8722 29.7575 18.3071 29.78 16.39 29.78C14.4729 29.78 12.9079 29.7575 11.6947 29.7126C10.6613 29.6677 9.74022 29.4879 8.93146 29.1734C8.15266 28.8739 7.47869 28.4396 6.90957 27.8704C6.34044 27.3013 5.90611 26.6273 5.60657 25.8485C5.29205 25.0398 5.11233 24.1187 5.0674 23.0853C5.02247 21.8722 5 20.3071 5 18.39C5 16.4729 5.02247 14.9079 5.0674 13.6947C5.11233 12.6613 5.29205 11.7402 5.60657 10.9315C5.90611 10.1527 6.34044 9.47869 6.90957 8.90957C7.47869 8.34044 8.15266 7.90611 8.93146 7.60657C9.74022 7.29205 10.6613 7.11233 11.6947 7.0674C12.9079 7.02247 14.4729 7 16.39 7ZM16.39 8.48272C14.3981 8.48272 12.7731 8.50519 11.515 8.55012C10.7062 8.58007 9.95738 8.72235 9.26844 8.97696C8.1901 9.42627 7.42627 10.1901 6.97696 11.2684C6.72235 11.9574 6.58007 12.7062 6.55012 13.515C6.50519 14.7731 6.48272 16.3981 6.48272 18.39C6.48272 20.3819 6.50519 22.0069 6.55012 23.265C6.58007 24.0738 6.72235 24.8226 6.97696 25.5116C7.42627 26.5899 8.1901 27.3537 9.26844 27.803C9.95738 28.0576 10.7062 28.1999 11.515 28.2299C12.7731 28.2748 14.3981 28.2973 16.39 28.2973C18.3819 28.2973 20.0069 28.2748 21.265 28.2299C22.0738 28.1999 22.8226 28.0576 23.5116 27.803C24.5899 27.3537 25.3537 26.5899 25.803 25.5116C26.0576 24.8226 26.1999 24.0738 26.2299 23.265C26.2748 22.0069 26.2973 20.3819 26.2973 18.39C26.2973 16.3981 26.2748 14.7731 26.2299 13.515C26.1999 12.7062 26.0576 11.9574 25.803 11.2684C25.3537 10.1901 24.5899 9.42627 23.5116 8.97696C22.8226 8.72235 22.0738 8.58007 21.265 8.55012C20.0069 8.50519 18.3819 8.48272 16.39 8.48272ZM16.39 22.9505C17.6481 22.9505 18.7227 22.5049 19.6138 21.6138C20.5049 20.7227 20.9505 19.6481 20.9505 18.39C20.9505 17.1319 20.5049 16.0573 19.6138 15.1662C18.7227 14.2751 17.6481 13.8295 16.39 13.8295C15.1319 13.8295 14.0573 14.2751 13.1662 15.1662C12.2751 16.0573 11.8295 17.1319 11.8295 18.39C11.8295 19.6481 12.2751 20.7227 13.1662 21.6138C14.0573 22.5049 15.1319 22.9505 16.39 22.9505ZM16.39 12.549C18.0075 12.549 19.3854 13.1181 20.5236 14.2564C21.6619 15.3946 22.231 16.7725 22.231 18.39C22.231 20.0075 21.6619 21.3854 20.5236 22.5236C19.3854 23.6619 18.0075 24.231 16.39 24.231C14.7725 24.231 13.3946 23.6619 12.2564 22.5236C11.1181 21.3854 10.549 20.0075 10.549 18.39C10.549 16.7725 11.1181 15.3946 12.2564 14.2564C13.3946 13.1181 14.7725 12.549 16.39 12.549ZM23.8485 12.3243C23.8485 12.6987 23.7137 13.017 23.4442 13.2791C23.1746 13.5412 22.8451 13.6722 22.4557 13.6722C22.0813 13.6722 21.763 13.5412 21.5009 13.2791C21.2388 13.017 21.1078 12.6987 21.1078 12.3243C21.1078 11.9349 21.2388 11.6054 21.5009 11.3358C21.763 11.0663 22.0813 10.9315 22.4557 10.9315C22.8301 10.9315 23.1559 11.07 23.4329 11.3471C23.71 11.6241 23.8485 11.9499 23.8485 12.3243Z" fill="var(--basic-green, #666666)"/>
  </symbol>
  <symbol id="icon-facebook-big" viewBox="0 0 30 33" fill="none">
    <path d="M21.58 2.75H18.0809C16.5342 2.75 15.0509 3.46024 13.9572 4.72447C12.8635 5.98871 12.2491 7.70337 12.2491 9.49127V13.536H8.75V18.929H12.2491V29.7151H16.9145V18.929H20.4136L21.58 13.536H16.9145V9.49127C16.9145 9.13369 17.0374 8.79076 17.2562 8.53791C17.4749 8.28506 17.7716 8.14302 18.0809 8.14302H21.58V2.75Z" stroke="var(--basic-green, #666666)" stroke-width="1.1" stroke-linecap="round" stroke-linejoin="round"/>
  </symbol>
  <symbol id="icon-vkontakte-big" viewBox="0 0 30 33" fill="none">
    <path d="M0 13.0371C0 12.1936 0.551896 11.7388 1.65569 11.6727L5.90909 11.6975C6.19455 11.6975 6.38486 11.8215 6.48002 12.0696C6.91773 13.31 7.40777 14.3808 7.95015 15.2822C8.49253 16.1835 9.20144 17.2213 10.0769 18.3956C10.153 18.5444 10.2767 18.6188 10.448 18.6188C10.5812 18.6188 10.6858 18.5609 10.762 18.4452L10.8476 18.1723L10.8762 13.8806C10.8762 13.5829 10.7953 13.3844 10.6335 13.2852C10.4717 13.1859 10.172 13.1115 9.7343 13.0619C9.39174 13.0123 9.22047 12.8304 9.22047 12.5161C9.22047 12.45 9.22998 12.4004 9.24901 12.3673C9.64866 11.2923 10.7905 10.7548 12.6746 10.7548L14.2732 10.73C14.9963 10.73 15.5958 10.8871 16.0716 11.2013C16.5474 11.5156 16.7852 12.0117 16.7852 12.6898V18.3211C16.9185 18.4038 17.0422 18.4452 17.1563 18.4452C17.4418 18.4452 17.6892 18.2963 17.8986 17.9986C19.992 15.4517 21.1243 13.7482 21.2956 12.8882C21.2956 12.8717 21.3146 12.8304 21.3527 12.7642C21.4859 12.5161 21.7047 12.3011 22.0092 12.1192C22.3137 11.9373 22.5802 11.8132 22.8085 11.7471C22.8846 11.714 22.9703 11.6975 23.0654 11.6975H27.4901L27.7756 11.7223C28.1562 11.7223 28.4512 11.8794 28.6605 12.1936C28.7366 12.2929 28.789 12.4004 28.8175 12.5161C28.8461 12.6319 28.8651 12.7477 28.8746 12.8634C28.8841 12.9792 28.8889 13.0454 28.8889 13.0619V13.2356C28.7557 13.9136 28.4179 14.6372 27.8755 15.4062C27.3331 16.1753 26.6432 17.0063 25.8059 17.8994C24.9685 18.7925 24.4452 19.3796 24.2358 19.6608C24.0646 19.8592 23.9789 20.0411 23.9789 20.2065C23.9789 20.3388 24.055 20.4877 24.2073 20.6531L28.3751 25.2177C28.6034 25.4823 28.7176 25.7717 28.7176 26.0859C28.7176 26.4663 28.5463 26.7806 28.2038 27.0286C27.8612 27.2767 27.4521 27.4173 26.9763 27.4504L26.491 27.4752H22.152C22.1329 27.4752 22.0949 27.4793 22.0378 27.4876C21.9807 27.4958 21.9426 27.5 21.9236 27.5C21.5049 27.5 21.1148 27.3429 20.7532 27.0286C20.62 26.8963 19.7255 25.9206 18.0698 24.1013C17.9747 23.9856 17.8415 23.8781 17.6702 23.7788C17.5941 24.0434 17.4941 24.4238 17.3704 24.92C17.2467 25.4161 17.1563 25.7717 17.0993 25.9867L17.0136 26.4084C16.8233 26.9873 16.4237 27.3346 15.8147 27.4504L15.415 27.4752H12.6175C11.0379 27.4752 9.46311 26.8467 7.89306 25.5898C6.32301 24.3329 4.90997 22.708 3.65393 20.7151C2.39789 18.7222 1.22749 16.4027 0.142732 13.7565C0.0475772 13.5415 0 13.3017 0 13.0371ZM17.1563 19.4623C16.7567 19.4623 16.3951 19.3672 16.0716 19.177C15.7481 18.9868 15.5863 18.7263 15.5863 18.3956V12.6898C15.5863 12.359 15.4911 12.1233 15.3008 11.9828C15.1105 11.8422 14.7775 11.7719 14.3017 11.7719L12.6746 11.8215C11.8562 11.8215 11.2377 11.9456 10.8191 12.1936C11.6564 12.5409 12.0751 13.1032 12.0751 13.8806V18.2467C12.037 18.6602 11.8467 19.0033 11.5042 19.2762C11.1616 19.5491 10.781 19.6856 10.3623 19.6856C9.79139 19.6856 9.35368 19.4458 9.04919 18.9661C7.56478 17.0146 6.46099 15.1623 5.73781 13.4092L5.4809 12.7642L1.68423 12.7394C1.43683 12.7394 1.29886 12.7518 1.27031 12.7766C1.24177 12.8014 1.22749 12.8717 1.22749 12.9875C1.22749 13.1363 1.24652 13.2934 1.28459 13.4588L1.88406 14.8481C3.48265 18.4369 5.21922 21.265 7.09376 23.3323C8.96831 25.3996 10.8095 26.4333 12.6175 26.4333H15.4721C15.5863 26.4333 15.6719 26.4043 15.729 26.3464C15.7861 26.2885 15.8337 26.1769 15.8718 26.0115L15.9289 25.7634L16.4712 23.5804C16.6235 23.2827 16.7567 23.0842 16.8709 22.985C17.0802 22.8031 17.3276 22.7121 17.6131 22.7121C18.0698 22.7121 18.5361 22.9519 19.0119 23.4315L21.4383 26.1108C21.5905 26.3258 21.7523 26.4333 21.9236 26.4333H26.6337C27.2047 26.4333 27.4901 26.3092 27.4901 26.0611C27.4901 25.9784 27.4616 25.8958 27.4045 25.8131L23.2653 21.3229C22.9417 20.9756 22.78 20.6034 22.78 20.2065C22.78 19.8096 22.9322 19.4292 23.2367 19.0654C23.4841 18.7346 23.9646 18.1847 24.6783 17.4157C25.392 16.6466 26.0152 15.9272 26.5481 15.2574C27.081 14.5876 27.433 13.9798 27.6043 13.434L27.6899 13.1115C27.6709 13.0784 27.6614 13.0247 27.6614 12.9503C27.6614 12.8758 27.6519 12.8138 27.6329 12.7642H23.1511C22.8656 12.8634 22.6372 13.0123 22.466 13.2107L22.2947 13.6821C21.8189 14.8232 20.5724 16.5846 18.5551 18.9661C18.1555 19.2969 17.6892 19.4623 17.1563 19.4623Z" fill="var(--basic-green, #666666)"/>
  </symbol>
  <!-- Конец -->
  <symbol id="logo-academy" viewBox="0 0 27 34" fill="none">
    <path d="M13.6426 0.0157537L13.5 0L0 1.40733V26.0129L13.5 34L27 26.0129V1.40733L13.6426 0.0157537ZM25.2344 25.0151L13.5 31.9573L1.76561 25.0151V14.9293L13.4507 21.8451L13.4701 23.0984L5.45351 18.3548L5.44295 19.5801L13.4894 24.3885L13.5088 25.675L5.46408 20.9174L5.45351 22.1427L13.5 26.9511L21.6239 22.1182V20.8929V16.909L25.2432 14.7595L25.2344 25.0151ZM25.2344 13.4519L22.0147 15.3319L20.5325 16.2071L13.4666 12.0201L13.456 13.2454L19.4957 16.818L19.4429 16.8495L19.3126 16.9247L18.4536 17.4166L13.4666 14.4689L13.456 15.6942L17.3921 18.0222L16.4591 18.6314L16.438 18.6436L13.4666 16.902L13.456 18.1273L15.4029 19.2615L13.4155 20.4483L1.7973 13.5762L13.4349 6.61831L25.2344 13.4519ZM25.2344 12.2266L13.4401 5.31075L1.76561 12.2196V2.9897L13.5 1.76442L25.2344 2.9897V12.2266Z" fill="var(--basic-green, #666666)"/>
  </symbol>
</svg>
