<svg viewBox="0 0 30 33" fill="none">
    <path d="M0 13.0371C0 12.1936 0.551896 11.7388 1.65569 11.6727L5.90909 11.6975C6.19455 11.6975 6.38486 11.8215 6.48002 12.0696C6.91773 13.31 7.40777 14.3808 7.95015 15.2822C8.49253 16.1835 9.20144 17.2213 10.0769 18.3956C10.153 18.5444 10.2767 18.6188 10.448 18.6188C10.5812 18.6188 10.6858 18.5609 10.762 18.4452L10.8476 18.1723L10.8762 13.8806C10.8762 13.5829 10.7953 13.3844 10.6335 13.2852C10.4717 13.1859 10.172 13.1115 9.7343 13.0619C9.39174 13.0123 9.22047 12.8304 9.22047 12.5161C9.22047 12.45 9.22998 12.4004 9.24901 12.3673C9.64866 11.2923 10.7905 10.7548 12.6746 10.7548L14.2732 10.73C14.9963 10.73 15.5958 10.8871 16.0716 11.2013C16.5474 11.5156 16.7852 12.0117 16.7852 12.6898V18.3211C16.9185 18.4038 17.0422 18.4452 17.1563 18.4452C17.4418 18.4452 17.6892 18.2963 17.8986 17.9986C19.992 15.4517 21.1243 13.7482 21.2956 12.8882C21.2956 12.8717 21.3146 12.8304 21.3527 12.7642C21.4859 12.5161 21.7047 12.3011 22.0092 12.1192C22.3137 11.9373 22.5802 11.8132 22.8085 11.7471C22.8846 11.714 22.9703 11.6975 23.0654 11.6975H27.4901L27.7756 11.7223C28.1562 11.7223 28.4512 11.8794 28.6605 12.1936C28.7366 12.2929 28.789 12.4004 28.8175 12.5161C28.8461 12.6319 28.8651 12.7477 28.8746 12.8634C28.8841 12.9792 28.8889 13.0454 28.8889 13.0619V13.2356C28.7557 13.9136 28.4179 14.6372 27.8755 15.4062C27.3331 16.1753 26.6432 17.0063 25.8059 17.8994C24.9685 18.7925 24.4452 19.3796 24.2358 19.6608C24.0646 19.8592 23.9789 20.0411 23.9789 20.2065C23.9789 20.3388 24.055 20.4877 24.2073 20.6531L28.3751 25.2177C28.6034 25.4823 28.7176 25.7717 28.7176 26.0859C28.7176 26.4663 28.5463 26.7806 28.2038 27.0286C27.8612 27.2767 27.4521 27.4173 26.9763 27.4504L26.491 27.4752H22.152C22.1329 27.4752 22.0949 27.4793 22.0378 27.4876C21.9807 27.4958 21.9426 27.5 21.9236 27.5C21.5049 27.5 21.1148 27.3429 20.7532 27.0286C20.62 26.8963 19.7255 25.9206 18.0698 24.1013C17.9747 23.9856 17.8415 23.8781 17.6702 23.7788C17.5941 24.0434 17.4941 24.4238 17.3704 24.92C17.2467 25.4161 17.1563 25.7717 17.0993 25.9867L17.0136 26.4084C16.8233 26.9873 16.4237 27.3346 15.8147 27.4504L15.415 27.4752H12.6175C11.0379 27.4752 9.46311 26.8467 7.89306 25.5898C6.32301 24.3329 4.90997 22.708 3.65393 20.7151C2.39789 18.7222 1.22749 16.4027 0.142732 13.7565C0.0475772 13.5415 0 13.3017 0 13.0371ZM17.1563 19.4623C16.7567 19.4623 16.3951 19.3672 16.0716 19.177C15.7481 18.9868 15.5863 18.7263 15.5863 18.3956V12.6898C15.5863 12.359 15.4911 12.1233 15.3008 11.9828C15.1105 11.8422 14.7775 11.7719 14.3017 11.7719L12.6746 11.8215C11.8562 11.8215 11.2377 11.9456 10.8191 12.1936C11.6564 12.5409 12.0751 13.1032 12.0751 13.8806V18.2467C12.037 18.6602 11.8467 19.0033 11.5042 19.2762C11.1616 19.5491 10.781 19.6856 10.3623 19.6856C9.79139 19.6856 9.35368 19.4458 9.04919 18.9661C7.56478 17.0146 6.46099 15.1623 5.73781 13.4092L5.4809 12.7642L1.68423 12.7394C1.43683 12.7394 1.29886 12.7518 1.27031 12.7766C1.24177 12.8014 1.22749 12.8717 1.22749 12.9875C1.22749 13.1363 1.24652 13.2934 1.28459 13.4588L1.88406 14.8481C3.48265 18.4369 5.21922 21.265 7.09376 23.3323C8.96831 25.3996 10.8095 26.4333 12.6175 26.4333H15.4721C15.5863 26.4333 15.6719 26.4043 15.729 26.3464C15.7861 26.2885 15.8337 26.1769 15.8718 26.0115L15.9289 25.7634L16.4712 23.5804C16.6235 23.2827 16.7567 23.0842 16.8709 22.985C17.0802 22.8031 17.3276 22.7121 17.6131 22.7121C18.0698 22.7121 18.5361 22.9519 19.0119 23.4315L21.4383 26.1108C21.5905 26.3258 21.7523 26.4333 21.9236 26.4333H26.6337C27.2047 26.4333 27.4901 26.3092 27.4901 26.0611C27.4901 25.9784 27.4616 25.8958 27.4045 25.8131L23.2653 21.3229C22.9417 20.9756 22.78 20.6034 22.78 20.2065C22.78 19.8096 22.9322 19.4292 23.2367 19.0654C23.4841 18.7346 23.9646 18.1847 24.6783 17.4157C25.392 16.6466 26.0152 15.9272 26.5481 15.2574C27.081 14.5876 27.433 13.9798 27.6043 13.434L27.6899 13.1115C27.6709 13.0784 27.6614 13.0247 27.6614 12.9503C27.6614 12.8758 27.6519 12.8138 27.6329 12.7642H23.1511C22.8656 12.8634 22.6372 13.0123 22.466 13.2107L22.2947 13.6821C21.8189 14.8232 20.5724 16.5846 18.5551 18.9661C18.1555 19.2969 17.6892 19.4623 17.1563 19.4623Z" fill="var(--basic-green, #666666)"/>
</svg>