<svg viewBox="0 0 30 33" fill="none">
    <path d="M16.39 7C18.3071 7 19.8722 7.02247 21.0853 7.0674C22.1187 7.11233 23.0398 7.29205 23.8485 7.60657C24.6273 7.90611 25.3013 8.34044 25.8704 8.90957C26.4396 9.47869 26.8739 10.1527 27.1734 10.9315C27.4879 11.7402 27.6677 12.6613 27.7126 13.6947C27.7575 14.9079 27.78 16.4729 27.78 18.39C27.78 20.3071 27.7575 21.8722 27.7126 23.0853C27.6677 24.1187 27.4879 25.0398 27.1734 25.8485C26.8739 26.6273 26.4396 27.3013 25.8704 27.8704C25.3013 28.4396 24.6273 28.8739 23.8485 29.1734C23.0398 29.4879 22.1187 29.6677 21.0853 29.7126C19.8722 29.7575 18.3071 29.78 16.39 29.78C14.4729 29.78 12.9079 29.7575 11.6947 29.7126C10.6613 29.6677 9.74022 29.4879 8.93146 29.1734C8.15266 28.8739 7.47869 28.4396 6.90957 27.8704C6.34044 27.3013 5.90611 26.6273 5.60657 25.8485C5.29205 25.0398 5.11233 24.1187 5.0674 23.0853C5.02247 21.8722 5 20.3071 5 18.39C5 16.4729 5.02247 14.9079 5.0674 13.6947C5.11233 12.6613 5.29205 11.7402 5.60657 10.9315C5.90611 10.1527 6.34044 9.47869 6.90957 8.90957C7.47869 8.34044 8.15266 7.90611 8.93146 7.60657C9.74022 7.29205 10.6613 7.11233 11.6947 7.0674C12.9079 7.02247 14.4729 7 16.39 7ZM16.39 8.48272C14.3981 8.48272 12.7731 8.50519 11.515 8.55012C10.7062 8.58007 9.95738 8.72235 9.26844 8.97696C8.1901 9.42627 7.42627 10.1901 6.97696 11.2684C6.72235 11.9574 6.58007 12.7062 6.55012 13.515C6.50519 14.7731 6.48272 16.3981 6.48272 18.39C6.48272 20.3819 6.50519 22.0069 6.55012 23.265C6.58007 24.0738 6.72235 24.8226 6.97696 25.5116C7.42627 26.5899 8.1901 27.3537 9.26844 27.803C9.95738 28.0576 10.7062 28.1999 11.515 28.2299C12.7731 28.2748 14.3981 28.2973 16.39 28.2973C18.3819 28.2973 20.0069 28.2748 21.265 28.2299C22.0738 28.1999 22.8226 28.0576 23.5116 27.803C24.5899 27.3537 25.3537 26.5899 25.803 25.5116C26.0576 24.8226 26.1999 24.0738 26.2299 23.265C26.2748 22.0069 26.2973 20.3819 26.2973 18.39C26.2973 16.3981 26.2748 14.7731 26.2299 13.515C26.1999 12.7062 26.0576 11.9574 25.803 11.2684C25.3537 10.1901 24.5899 9.42627 23.5116 8.97696C22.8226 8.72235 22.0738 8.58007 21.265 8.55012C20.0069 8.50519 18.3819 8.48272 16.39 8.48272ZM16.39 22.9505C17.6481 22.9505 18.7227 22.5049 19.6138 21.6138C20.5049 20.7227 20.9505 19.6481 20.9505 18.39C20.9505 17.1319 20.5049 16.0573 19.6138 15.1662C18.7227 14.2751 17.6481 13.8295 16.39 13.8295C15.1319 13.8295 14.0573 14.2751 13.1662 15.1662C12.2751 16.0573 11.8295 17.1319 11.8295 18.39C11.8295 19.6481 12.2751 20.7227 13.1662 21.6138C14.0573 22.5049 15.1319 22.9505 16.39 22.9505ZM16.39 12.549C18.0075 12.549 19.3854 13.1181 20.5236 14.2564C21.6619 15.3946 22.231 16.7725 22.231 18.39C22.231 20.0075 21.6619 21.3854 20.5236 22.5236C19.3854 23.6619 18.0075 24.231 16.39 24.231C14.7725 24.231 13.3946 23.6619 12.2564 22.5236C11.1181 21.3854 10.549 20.0075 10.549 18.39C10.549 16.7725 11.1181 15.3946 12.2564 14.2564C13.3946 13.1181 14.7725 12.549 16.39 12.549ZM23.8485 12.3243C23.8485 12.6987 23.7137 13.017 23.4442 13.2791C23.1746 13.5412 22.8451 13.6722 22.4557 13.6722C22.0813 13.6722 21.763 13.5412 21.5009 13.2791C21.2388 13.017 21.1078 12.6987 21.1078 12.3243C21.1078 11.9349 21.2388 11.6054 21.5009 11.3358C21.763 11.0663 22.0813 10.9315 22.4557 10.9315C22.8301 10.9315 23.1559 11.07 23.4329 11.3471C23.71 11.6241 23.8485 11.9499 23.8485 12.3243Z" fill="var(--basic-green, #666666)"/>
</svg>